# xmcd CD database file
#
# Track frame offsets:
#	150
#	16156
#	28232
#	45719
#	62865
#	88961
#
# Disc length: 1487 seconds
#
# Revision: 0
# Processed by: cddbd v1.5.2PL0 Copyright (c) Steve Scherf et al.
# Submitted via: CDex 1.79
#
DISCID=4c05cd06
DTITLE=Craig Campbell - Outta My Head EP
DYEAR=2012
DGENRE=Country
TTITLE0=Outta My Head
TTITLE1=Keep Them Kisses Comin'
TTITLE2=This Old Guitar
TTITLE3=You Can't Drown Misery
TTITLE4=Family Man (Live From Gstaad, Switzerland)
TTITLE5=Fish (Live From Gstaad, Switzerland)
EXTD=YEAR: 2012
EXTT0=
EXTT1=
EXTT2=
EXTT3=
EXTT4=
EXTT5=
PLAYORDER=
